<svg width="40" height="40" viewBox="0 0 40 40" fill="none" xmlns="http://www.w3.org/2000/svg">
<path d="M19.7 3.5C25 3.5 25.6 3.5 27.6 3.6C29.5 3.7 30.6 4 31.3 4.3C32.2 4.7 32.9 5.1 33.6 5.8C34.3 6.5 34.7 7.1 35.1 8.1C35.4 8.8 35.7 9.8 35.8 11.8C35.9 13.9 35.9 14.5 35.9 19.7C35.9 25 35.9 25.6 35.8 27.6C35.7 29.5 35.4 30.6 35.1 31.3C34.7 32.2 34.3 32.9 33.6 33.6C32.9 34.3 32.3 34.7 31.3 35.1C30.6 35.4 29.6 35.7 27.6 35.8C25.5 35.9 24.9 35.9 19.7 35.9C14.4 35.9 13.8 35.9 11.8 35.8C9.9 35.7 8.8 35.4 8.1 35.1C7.2 34.7 6.5 34.3 5.8 33.6C5.1 32.9 4.7 32.3 4.3 31.3C4 30.6 3.7 29.6 3.6 27.6C3.5 25.5 3.5 24.9 3.5 19.7C3.5 14.4 3.5 13.8 3.6 11.8C3.7 9.9 4 8.8 4.3 8.1C4.7 7.2 5.1 6.5 5.8 5.8C6.5 5.1 7.1 4.7 8.1 4.3C8.8 4 9.8 3.7 11.8 3.6C13.8 3.6 14.4 3.5 19.7 3.5ZM19.7 0C14.4 0 13.7 0 11.6 0.1C9.5 0.2 8 0.5 6.8 1C5.5 1.5 4.4 2.2 3.3 3.3C2.2 4.4 1.5 5.5 1 6.8C0.5 8 0.2 9.5 0.1 11.6C0 13.7 0 14.3 0 19.7C0 25.1 0 25.7 0.1 27.8C0.2 29.9 0.5 31.3 1 32.6C1.5 33.9 2.2 35 3.3 36.1C4.4 37.2 5.5 37.9 6.8 38.4C8.1 38.9 9.5 39.2 11.6 39.3C13.7 39.4 14.4 39.4 19.7 39.4C25 39.4 25.7 39.4 27.8 39.3C29.9 39.2 31.3 38.9 32.6 38.4C33.9 37.9 35 37.2 36.1 36.1C37.2 35 37.9 33.9 38.4 32.6C38.9 31.3 39.2 29.9 39.3 27.8C39.4 25.7 39.4 25 39.4 19.7C39.4 14.4 39.4 13.7 39.3 11.6C39.2 9.5 38.9 8.1 38.4 6.8C37.9 5.5 37.2 4.4 36.1 3.3C35 2.2 33.9 1.5 32.6 1C31.3 0.5 29.9 0.2 27.8 0.1C25.7 0 25 0 19.7 0Z" fill="#070C16"/>
<path d="M19.7 9.59998C14.1 9.59998 9.60001 14.1 9.60001 19.7C9.60001 25.3 14.1 29.8 19.7 29.8C25.3 29.8 29.8 25.3 29.8 19.7C29.8 14.1 25.2 9.59998 19.7 9.59998ZM19.7 26.2C16.1 26.2 13.1 23.3 13.1 19.6C13.1 16 16 13 19.7 13C23.3 13 26.3 15.9 26.3 19.6C26.2 23.3 23.3 26.2 19.7 26.2Z" fill="#070C16"/>
<path d="M32.5 9.19999C32.5 10.5 31.4 11.6 30.1 11.6C28.8 11.6 27.7 10.5 27.7 9.19999C27.7 7.89999 28.8 6.79999 30.1 6.79999C31.5 6.79999 32.5 7.89999 32.5 9.19999Z" fill="#070C16"/>
</svg>
