<svg xmlns="http://www.w3.org/2000/svg" viewBox="0 0 48.06 162.2"><defs><style>.cls-1{fill:#fff;}</style></defs><title>logo_icon</title><g id="Laag_2" data-name="Laag 2"><g id="Laag_1-2" data-name="Laag 1"><path class="cls-1" d="M26.6,96.36a40.63,40.63,0,0,1-4.23-1.59c-1.33-1.16-2.18,0-2.18,0a1,1,0,0,0,.15,1.42c1.65,1.14,1.36,3.48,1.36,3.48A31.5,31.5,0,0,1,20,105.06c-1.73,3.67.69,3.87.69,3.87,2.51.24,3.87-4.16,3.87-4.16,1.11-4.38,2.29-3.64,2.29-3.64,1.3.79-.49,2.39-.49,2.39,3.15,3.71,11.33,2,11.33,2s.33-2.77.61-9C38.33,96.5,33.63,98.55,26.6,96.36Z"/><path class="cls-1" d="M19.44,83.23c-.65-.43-2.15-.25-1.35-3.65a32.08,32.08,0,0,0,.5-5.64,4,4,0,0,0-2.06-3.12s-.41-.13-.69-1a8.26,8.26,0,0,1-.28-2,32.08,32.08,0,0,0-1.05-5.57,4,4,0,0,0-2.83-2.44.91.91,0,0,1-.79-1.18s.21-1.4,1.93-1a11.33,11.33,0,0,0,4.54-.94s7.73-2.77,9.37-5.33l1.13,2.33,3.26,6.52s-6.79,4.54-10.66,3.29c0,0,.84-2.26-.68-2.34,0,0-1.38-.11-.33,4.28a9.32,9.32,0,0,1-.15,3.87,9.7,9.7,0,0,0,3.54,0s7.69-.62,10.75-3.73a76.05,76.05,0,0,1,2.8,9.62s-6.51,5-12.41,1.51c0,0,1.42-2,0-2.45,0,0-1.3-.47-1.48,4a9.78,9.78,0,0,1-1,3.43l.06,0a13.49,13.49,0,0,0,5.24,1.4s7.36,1,10.73-1.85a69.64,69.64,0,0,1,.85,9.52s-8.32,2.62-12-.72c0,0,1.64-1.76.27-2.43,0,0-1.23-.62-1.95,3.83,0,0-.95,4.52-3.47,4.51,0,0-2.43,0-1-3.79a33,33,0,0,0,1.17-5.55s.09-2.39-1.66-3.38Z"/><path class="cls-1" d="M25.94,109.36a21.15,21.15,0,0,1-4.13-2.11c-1.09-1.39-2.13-.43-2.13-.43a.94.94,0,0,0-.12,1.42,4,4,0,0,1,.67,3.67,31.71,31.71,0,0,1-2.67,5c-2.4,3.27-.07,3.93-.07,3.93,2.42.72,4.59-3.35,4.59-3.35,1.93-4.08,3-3.13,3-3.13,1.12,1-.94,2.25-.94,2.25,3.34,4.71,10.73,3.64,10.73,3.64a83.89,83.89,0,0,0,2-9.21C31.93,112.64,25.94,109.36,25.94,109.36Z"/><path class="cls-1" d="M11.2,43.58H2.72a3.7,3.7,0,0,1-2-1A2.43,2.43,0,0,1,0,40.63l.59-6.7H11.26l.88-7.21a36.5,36.5,0,0,1,3.21-11.37,27.83,27.83,0,0,1,6-8.39A24.77,24.77,0,0,1,29.7,1.77,28.1,28.1,0,0,1,39.75,0a22,22,0,0,1,8.31,1.51L46.81,8.25a1.4,1.4,0,0,1-1,1.28,7.71,7.71,0,0,1-2.17.26H40.56a17.82,17.82,0,0,0-5.86.92,12.19,12.19,0,0,0-4.74,3A16.55,16.55,0,0,0,26.5,19a30.12,30.12,0,0,0-2,8.08l-.88,6.82H42.25L41,43.35H22.89"/><path class="cls-1" d="M28,135.11a30.25,30.25,0,0,0,5.16-9.37c-8.41.07-10.62-3.45-10.62-3.45-5.54,1.12-5.74,3.08-5.74,3.08a4,4,0,0,1-3,3.18c-1.94.57-2.19,3.39-2.19,3.39-.54,2.61-3.5,4.84-3.5,4.84-1.39,1.2.45,4.3.45,4.3-3.17,5.82-.58,13.45.6,15.36l.41.62L10.87,159a11.85,11.85,0,0,0,3.65,3.2c.77-1.12-1.24-4-1.24-4-1.5-3,0-7.78,0-7.78,2.37-1.78,2.18-3.38,2.18-3.38a3.82,3.82,0,0,1-1.13-3.52c.53-2.1,4.79-3.2,6.69-3.66a12.92,12.92,0,0,0,2.87-1.14A12.34,12.34,0,0,0,28,135.11Z"/><path class="cls-1" d="M10.87,42.66l11.46-1.6c-.07,2.72,1,3.75,1,3.75-2.3,3.2-9.23,5.71-9.23,5.71S10.75,46.49,10.87,42.66Z"/></g></g></svg>