<svg xmlns="http://www.w3.org/2000/svg" viewBox="0 0 348.53 166.64"><defs><style>.cls-1{fill:#44a0c5;}.cls-2{fill:#070c16;}</style></defs><title>Logo_Delfland_1</title><g id="Laag_2" data-name="Laag 2"><g id="Laag_1-2" data-name="Laag 1"><path class="cls-1" d="M56.61,77.11a41.41,41.41,0,0,1-2.49,14.68,34.16,34.16,0,0,1-6.87,11.36,30.3,30.3,0,0,1-10.43,7.33,33,33,0,0,1-13.19,2.6H1.84L9.63,50H31.38a26.77,26.77,0,0,1,10.5,2,22.45,22.45,0,0,1,7.95,5.57,24.84,24.84,0,0,1,5,8.58A32.77,32.77,0,0,1,56.61,77.11Zm-8.46.17a28.32,28.32,0,0,0-1.21-8.58,18.26,18.26,0,0,0-3.48-6.49,15.18,15.18,0,0,0-5.52-4.1,18.15,18.15,0,0,0-7.35-1.43H17.11L11,106.43H24.42a22.88,22.88,0,0,0,9.64-2,21.14,21.14,0,0,0,7.49-5.77,27.29,27.29,0,0,0,4.86-9.16A39.67,39.67,0,0,0,48.15,77.28Z"/><path class="cls-1" d="M100,78a12.1,12.1,0,0,1-1.19,5.35,11.09,11.09,0,0,1-4.36,4.41,32.8,32.8,0,0,1-8.71,3.41,95.21,95.21,0,0,1-14.27,2.33c0,.32,0,.64,0,1v.94q0,5.91,2.57,9t7.77,3.1a14.4,14.4,0,0,0,3.77-.44A15.64,15.64,0,0,0,88.46,106a12.71,12.71,0,0,0,2.29-1.41l1.82-1.41c.56-.42,1.08-.78,1.55-1.07a2.53,2.53,0,0,1,1.4-.44,2,2,0,0,1,1.46.74l1.93,2.43a39.87,39.87,0,0,1-4.38,4,25.11,25.11,0,0,1-4.38,2.75,19.42,19.42,0,0,1-4.69,1.61,25.65,25.65,0,0,1-5.26.51,17.64,17.64,0,0,1-6.87-1.28,14.25,14.25,0,0,1-5.15-3.63,16.21,16.21,0,0,1-3.25-5.71,22.76,22.76,0,0,1-1.15-7.48,33,33,0,0,1,2.84-13.34A29.53,29.53,0,0,1,70,76.54,23,23,0,0,1,74.59,72a21.64,21.64,0,0,1,5.68-3,19.9,19.9,0,0,1,6.67-1.1,16.07,16.07,0,0,1,5.85,1,12.35,12.35,0,0,1,4,2.47,9.83,9.83,0,0,1,2.36,3.3A8.81,8.81,0,0,1,100,78ZM86.5,73.5a11.5,11.5,0,0,0-5.11,1.14,14,14,0,0,0-4.14,3.15,19.47,19.47,0,0,0-3.08,4.71,28.26,28.26,0,0,0-2,5.84,85.5,85.5,0,0,0,10.87-1.92,27.49,27.49,0,0,0,6.3-2.33A6.06,6.06,0,0,0,93,78.34a4.39,4.39,0,0,0-1.47-3.21,6.27,6.27,0,0,0-2-1.17A8.5,8.5,0,0,0,86.5,73.5Z"/><path class="cls-1" d="M108.29,113.08l7.88-64.85h7.71L116,113.08Z"/><path class="cls-1" d="M187.44,113.08l7.88-64.85H203l-7.88,64.85Z"/><path class="cls-1" d="M243,113.08h-4a2.38,2.38,0,0,1-2.09-.79,3.31,3.31,0,0,1-.55-1.94l.79-8.93a36.92,36.92,0,0,1-3.41,5.06,23.59,23.59,0,0,1-3.87,3.87,16.83,16.83,0,0,1-4.3,2.47,12.77,12.77,0,0,1-4.66.88,11,11,0,0,1-4.8-1,10,10,0,0,1-3.68-3,14.67,14.67,0,0,1-2.35-4.93,24.38,24.38,0,0,1-.84-6.71,30.29,30.29,0,0,1,1-7.73A31.46,31.46,0,0,1,217.42,77a29.24,29.24,0,0,1,5.7-4.84A27,27,0,0,1,229.88,69a25.31,25.31,0,0,1,7.57-1.13,32.79,32.79,0,0,1,5.57.47A22.55,22.55,0,0,1,248.37,70Zm-19.19-5.9a7.75,7.75,0,0,0,4.22-1.32A16.07,16.07,0,0,0,232,102.2a31.46,31.46,0,0,0,3.46-5.57,50.6,50.6,0,0,0,2.84-7.09l1.89-15.08a3,3,0,0,0-1.91-.78h-1.88a15.42,15.42,0,0,0-5.1.85,18.1,18.1,0,0,0-4.62,2.39,20.57,20.57,0,0,0-3.92,3.67,23.72,23.72,0,0,0-3,4.68,26.27,26.27,0,0,0-2,5.42,24.76,24.76,0,0,0-.7,5.91Q217.07,107.18,223.85,107.18Z"/><path class="cls-1" d="M257.35,113.08l5.33-44.64h3.92a2.33,2.33,0,0,1,2.64,2.64l-.66,8.63a27.55,27.55,0,0,1,8-8.9,16.48,16.48,0,0,1,9.27-3,9.44,9.44,0,0,1,7.72,3.35q2.76,3.35,2.76,9.77c0,.59,0,1.19,0,1.81s-.09,1.26-.18,1.93l-3.35,28.4H285l3.35-28.4c.06-.58.11-1.15.15-1.69s.07-1.07.07-1.57a8.78,8.78,0,0,0-1.34-5.35A5,5,0,0,0,283,74.33a9.21,9.21,0,0,0-4.29,1.15,16.59,16.59,0,0,0-4.2,3.24,26.34,26.34,0,0,0-3.77,5.06,35.37,35.37,0,0,0-3,6.63l-2.55,22.67Z"/><path class="cls-1" d="M336.46,113.08a2.39,2.39,0,0,1-2.09-.79,3.38,3.38,0,0,1-.55-1.94l.84-9.29a36.94,36.94,0,0,1-3.65,5.2,26.73,26.73,0,0,1-4.17,4,18.3,18.3,0,0,1-4.53,2.55,13.29,13.29,0,0,1-4.78.91,10.49,10.49,0,0,1-8.87-4.16q-3.15-4.17-3.15-12.09a35.41,35.41,0,0,1,.75-7.22,37,37,0,0,1,2.14-6.91,33.88,33.88,0,0,1,3.34-6.14,25.66,25.66,0,0,1,4.36-4.91A19.58,19.58,0,0,1,321.32,69a15.1,15.1,0,0,1,5.9-1.19,13.79,13.79,0,0,1,6,1.28,12.87,12.87,0,0,1,4.61,3.65l3-24.52h7.71l-8,64.85Zm-16-5.68a8.08,8.08,0,0,0,4.25-1.3,17.85,17.85,0,0,0,4.14-3.61,30.71,30.71,0,0,0,3.74-5.5,43.94,43.94,0,0,0,3-7l1.45-11.8a9.2,9.2,0,0,0-4-3.3,12.07,12.07,0,0,0-4.71-1A10.28,10.28,0,0,0,322.09,76a17.87,17.87,0,0,0-4.75,5.35,27.62,27.62,0,0,0-3,7.33,31.2,31.2,0,0,0-1.06,8q0,5.24,1.9,8A6.09,6.09,0,0,0,320.48,107.4Z"/><path class="cls-1" d="M155.72,113a32.49,32.49,0,0,1-3.45-1.29c-1.08-.94-1.77,0-1.77,0a.77.77,0,0,0,.12,1.15,3.24,3.24,0,0,1,1.11,2.84,26,26,0,0,1-1.36,4.41c-1.41,3,.55,3.16.55,3.16,2.05.19,3.16-3.4,3.16-3.4.91-3.56,1.87-3,1.87-3,1.06.64-.4,2-.4,2,2.57,3,9.24,1.63,9.24,1.63s.27-2.27.5-7.36C165.29,113.07,161.46,114.74,155.72,113Z"/><path class="cls-1" d="M149.88,102.25c-.53-.35-1.75-.2-1.1-3a26,26,0,0,0,.41-4.61,3.22,3.22,0,0,0-1.68-2.54s-.33-.1-.56-.78a6.56,6.56,0,0,1-.23-1.66,26.51,26.51,0,0,0-.85-4.54,3.25,3.25,0,0,0-2.31-2,.73.73,0,0,1-.64-1s.17-1.14,1.57-.82a9.24,9.24,0,0,0,3.7-.77s6.3-2.26,7.64-4.34l.92,1.89,2.66,5.32s-5.54,3.71-8.69,2.68c0,0,.68-1.84-.56-1.91,0,0-1.13-.08-.27,3.5a7.53,7.53,0,0,1-.12,3.15,8,8,0,0,0,2.89,0s6.27-.51,8.76-3a63.21,63.21,0,0,1,2.29,7.85s-5.32,4.05-10.12,1.23c0,0,1.15-1.59,0-2,0,0-1.06-.38-1.21,3.29a7.9,7.9,0,0,1-.84,2.8l0,0a10.94,10.94,0,0,0,4.27,1.14s6,.82,8.76-1.51a58.76,58.76,0,0,1,.69,7.77s-6.79,2.13-9.8-.59c0,0,1.33-1.44.22-2,0,0-1-.51-1.59,3.13,0,0-.77,3.67-2.83,3.67,0,0-2,0-.85-3.09a26.55,26.55,0,0,0,1-4.53,3.25,3.25,0,0,0-1.35-2.75Z"/><path class="cls-1" d="M155.19,123.56a17.38,17.38,0,0,1-3.37-1.72c-.89-1.13-1.74-.35-1.74-.35a.76.76,0,0,0-.1,1.15,3.24,3.24,0,0,1,.55,3,26.61,26.61,0,0,1-2.18,4.08c-2,2.66-.06,3.2-.06,3.2,2,.58,3.75-2.73,3.75-2.73,1.57-3.33,2.4-2.56,2.4-2.56.92.83-.77,1.84-.77,1.84,2.73,3.84,8.75,3,8.75,3a69.39,69.39,0,0,0,1.68-7.51C160.07,126.23,155.19,123.56,155.19,123.56Z"/><path class="cls-1" d="M143.17,69.92h-6.92a3,3,0,0,1-1.62-.84,2,2,0,0,1-.6-1.56l.48-5.47h8.71l.72-5.88a29.9,29.9,0,0,1,2.61-9.27,22.88,22.88,0,0,1,4.92-6.84,20.28,20.28,0,0,1,6.78-4.23,23,23,0,0,1,8.19-1.44,18,18,0,0,1,6.78,1.23l-1,5.5a1.15,1.15,0,0,1-.81,1,6.21,6.21,0,0,1-1.77.21H167.1a14.63,14.63,0,0,0-4.77.75,10.09,10.09,0,0,0-3.87,2.42,13.52,13.52,0,0,0-2.82,4.37A24.73,24.73,0,0,0,154,56.49l-.72,5.56h15.18l-1,7.69H152.7"/><path class="cls-1" d="M156.84,144.55a24.84,24.84,0,0,0,4.21-7.64c-6.86.06-8.66-2.81-8.66-2.81-4.52.91-4.68,2.51-4.68,2.51a3.25,3.25,0,0,1-2.42,2.6c-1.58.46-1.78,2.76-1.78,2.76-.44,2.12-2.86,3.94-2.86,3.94-1.12,1,.37,3.51.37,3.51-2.59,4.75-.47,11,.49,12.52l.34.51,1,1.58a9.59,9.59,0,0,0,3,2.61c.62-.91-1-3.28-1-3.28-1.22-2.46,0-6.34,0-6.34,1.93-1.46,1.78-2.76,1.78-2.76a3.12,3.12,0,0,1-.93-2.87c.44-1.72,3.91-2.61,5.46-3a11.28,11.28,0,0,0,2.34-.92A10.25,10.25,0,0,0,156.84,144.55Z"/><path class="cls-1" d="M142.89,69.17l10-1.3a4.35,4.35,0,0,0,.78,3.06c-1.88,2.6-8.14,4.65-8.14,4.65S142.8,72.3,142.89,69.17Z"/><path class="cls-2" d="M60.46,18.76a.37.37,0,0,1,.27.11l.63.67a9.53,9.53,0,0,1-1.51,1.33,9.11,9.11,0,0,1-1.78,1,11.06,11.06,0,0,1-2.13.65,13.28,13.28,0,0,1-2.54.22,10.78,10.78,0,0,1-4.23-.81,9.41,9.41,0,0,1-3.31-2.29,10.57,10.57,0,0,1-2.14-3.6A13.36,13.36,0,0,1,43,11.37a13,13,0,0,1,.79-4.63A10.53,10.53,0,0,1,46,3.15,10,10,0,0,1,49.42.83,11.3,11.3,0,0,1,53.84,0a12.63,12.63,0,0,1,2.22.18A9.77,9.77,0,0,1,57.94.7a9.38,9.38,0,0,1,1.64.84A12.4,12.4,0,0,1,61.09,2.7l-.48.71a.45.45,0,0,1-.4.19.67.67,0,0,1-.36-.16c-.15-.12-.33-.25-.56-.41s-.5-.34-.81-.54A7.29,7.29,0,0,0,57.33,2a9.73,9.73,0,0,0-1.52-.41,10.55,10.55,0,0,0-2-.17,9.78,9.78,0,0,0-3.72.7,8.4,8.4,0,0,0-2.93,2,9.3,9.3,0,0,0-1.91,3.15,12,12,0,0,0-.68,4.14,12.28,12.28,0,0,0,.67,4.21,9.16,9.16,0,0,0,1.88,3.14,8,8,0,0,0,2.82,2,8.93,8.93,0,0,0,3.53.69,12.49,12.49,0,0,0,2.13-.16,8,8,0,0,0,1.72-.47A8.11,8.11,0,0,0,58.81,20a10.64,10.64,0,0,0,1.34-1.07.65.65,0,0,1,.15-.1A.29.29,0,0,1,60.46,18.76Z"/><path class="cls-2" d="M87.05,22.5H85.43V11.84H71.5V22.5H69.88V.25H71.5V10.63H85.43V.25h1.62Z"/><path class="cls-2" d="M99.32,22.5H97.7V.25h1.62Z"/><path class="cls-2" d="M112.05,12.44V22.5h-1.6V.25h5.68q3.84,0,5.75,1.49a5.18,5.18,0,0,1,1.9,4.36,5.86,5.86,0,0,1-.44,2.33,5.44,5.44,0,0,1-1.26,1.85,6.79,6.79,0,0,1-2,1.3,8.75,8.75,0,0,1-2.63.67,2.69,2.69,0,0,1,.68.63l7.66,9.62h-1.4a1,1,0,0,1-.44-.09,1.27,1.27,0,0,1-.35-.32l-7.12-9a1.54,1.54,0,0,0-.58-.49,2.28,2.28,0,0,0-1-.14Zm0-1.2h3.87a9,9,0,0,0,2.65-.35,5.79,5.79,0,0,0,2-1,4.43,4.43,0,0,0,1.24-1.58,5,5,0,0,0,.42-2.09,4.1,4.1,0,0,0-1.56-3.53,7.56,7.56,0,0,0-4.52-1.14h-4.08Z"/><path class="cls-2" d="M152.45,11.37a13.59,13.59,0,0,1-.77,4.68,10.47,10.47,0,0,1-2.17,3.58,9.68,9.68,0,0,1-3.35,2.3,11.87,11.87,0,0,1-8.62,0,9.68,9.68,0,0,1-3.35-2.3A10.32,10.32,0,0,1,132,16.05a13.36,13.36,0,0,1-.78-4.68A13.28,13.28,0,0,1,132,6.71a10.36,10.36,0,0,1,2.17-3.59,9.68,9.68,0,0,1,3.35-2.3A10.9,10.9,0,0,1,141.83,0a11.17,11.17,0,0,1,4.33.81,9.68,9.68,0,0,1,3.35,2.3,10.66,10.66,0,0,1,2.17,3.6A13.52,13.52,0,0,1,152.45,11.37Zm-1.67,0a12.65,12.65,0,0,0-.64-4.18A9,9,0,0,0,148.32,4a7.69,7.69,0,0,0-2.82-2,9.41,9.41,0,0,0-3.67-.69,9.27,9.27,0,0,0-3.62.69,7.81,7.81,0,0,0-2.83,2,8.91,8.91,0,0,0-1.84,3.15,12.39,12.39,0,0,0-.65,4.18,12.41,12.41,0,0,0,.65,4.19,9,9,0,0,0,1.84,3.14,7.79,7.79,0,0,0,2.83,2,9.45,9.45,0,0,0,3.62.68,9.6,9.6,0,0,0,3.67-.68,7.67,7.67,0,0,0,2.82-2,9.07,9.07,0,0,0,1.82-3.14A12.67,12.67,0,0,0,150.78,11.37Z"/><path class="cls-2" d="M163.22,13.54v9h-1.61V.25h5.74q3.92,0,5.91,1.72a6.11,6.11,0,0,1,2,4.88,6.56,6.56,0,0,1-.54,2.69,6.08,6.08,0,0,1-1.57,2.12A7.35,7.35,0,0,1,170.66,13a10.32,10.32,0,0,1-3.31.5Zm0-1.29h4.13a8.06,8.06,0,0,0,2.65-.41,5.85,5.85,0,0,0,2-1.13A5,5,0,0,0,173.21,9a5.23,5.23,0,0,0,.43-2.15,4.94,4.94,0,0,0-1.58-3.94,7,7,0,0,0-4.71-1.38h-4.13Z"/><path class="cls-2" d="M185.34,12.44V22.5h-1.6V.25h5.67q3.85,0,5.76,1.49a5.18,5.18,0,0,1,1.9,4.36,6,6,0,0,1-.44,2.33,5.32,5.32,0,0,1-1.27,1.85,6.61,6.61,0,0,1-2,1.3,8.83,8.83,0,0,1-2.63.67,2.69,2.69,0,0,1,.68.63l7.65,9.62h-1.4a1,1,0,0,1-.43-.09,1.15,1.15,0,0,1-.35-.32l-7.12-9a1.54,1.54,0,0,0-.58-.49,2.28,2.28,0,0,0-.95-.14Zm0-1.2h3.87a9,9,0,0,0,2.65-.35,5.79,5.79,0,0,0,2-1,4.29,4.29,0,0,0,1.23-1.58,4.88,4.88,0,0,0,.43-2.09,4.1,4.1,0,0,0-1.56-3.53,7.61,7.61,0,0,0-4.53-1.14h-4.07Z"/><path class="cls-2" d="M223.31,22.5h-1.24a.54.54,0,0,1-.36-.12.79.79,0,0,1-.22-.31l-2.63-6.46H207.94l-2.61,6.46a.73.73,0,0,1-.22.3.58.58,0,0,1-.38.13H203.5L212.61.25h1.6Zm-14.89-8.08h10L213.85,3.18a5.31,5.31,0,0,1-.22-.61c-.08-.22-.15-.46-.22-.72l-.22.72-.22.62Z"/><path class="cls-2" d="M246,18.76a.4.4,0,0,1,.27.11l.63.67a10.5,10.5,0,0,1-1.51,1.33,9.19,9.19,0,0,1-1.79,1,10.74,10.74,0,0,1-2.12.65,13.35,13.35,0,0,1-2.54.22,10.82,10.82,0,0,1-4.24-.81,9.46,9.46,0,0,1-3.3-2.29,10.59,10.59,0,0,1-2.15-3.6,13.59,13.59,0,0,1-.77-4.68,13,13,0,0,1,.8-4.63,10.53,10.53,0,0,1,2.23-3.59A10,10,0,0,1,234.94.83,11.35,11.35,0,0,1,239.37,0a12.63,12.63,0,0,1,2.22.18,9.67,9.67,0,0,1,1.87.52,9.48,9.48,0,0,1,1.65.84,13.22,13.22,0,0,1,1.51,1.16l-.49.71a.43.43,0,0,1-.39.19.62.62,0,0,1-.36-.16c-.15-.12-.34-.25-.56-.41s-.5-.34-.82-.54A6.76,6.76,0,0,0,242.86,2a9.88,9.88,0,0,0-1.53-.41,10.44,10.44,0,0,0-2-.17,9.87,9.87,0,0,0-3.73.7,8.36,8.36,0,0,0-2.92,2,9,9,0,0,0-1.91,3.15,11.75,11.75,0,0,0-.69,4.14,12.27,12.27,0,0,0,.68,4.21,9,9,0,0,0,1.87,3.14,8.14,8.14,0,0,0,2.82,2,9,9,0,0,0,3.53.69,12.33,12.33,0,0,0,2.13-.16A8,8,0,0,0,244.34,20a10.57,10.57,0,0,0,1.33-1.07l.15-.1A.33.33,0,0,1,246,18.76Z"/><path class="cls-2" d="M269.93.25V1.62h-7.81V22.5h-1.6V1.62h-7.87V.25Z"/><path class="cls-2" d="M279.45,22.5h-1.62V.25h1.62Z"/><path class="cls-2" d="M303.44.25V1.59H291.73v9h9.74v1.31h-9.74v9.27h11.71V22.5H290.11V.25Z"/><polygon class="cls-1" points="114.18 130.84 0 130.84 0.78 123.47 115.12 123.47 114.18 130.84"/><polygon class="cls-1" points="338.24 130.84 185.12 130.84 185.89 123.47 339.18 123.47 338.24 130.84"/></g></g></svg>