<svg width="38" height="39" viewBox="0 0 38 39" fill="none" xmlns="http://www.w3.org/2000/svg">
<path d="M35.9989 28.2042V33.4731C36.0009 33.9623 35.9034 34.4464 35.7126 34.8946C35.5219 35.3428 35.2421 35.7451 34.8913 36.0757C34.5405 36.4064 34.1263 36.6582 33.6753 36.8149C33.2243 36.9716 32.7464 37.0298 32.2722 36.9857C27.0118 36.3985 21.9587 34.5518 17.5191 31.5939C13.3887 28.8974 9.88675 25.2996 7.26207 21.0561C4.37296 16.4742 2.57501 11.2576 2.01388 5.82891C1.97116 5.34324 2.02734 4.85374 2.17884 4.3916C2.33035 3.92945 2.57386 3.50478 2.89387 3.14461C3.21389 2.78445 3.60339 2.49669 4.03758 2.29966C4.47177 2.10262 4.94114 2.00063 5.4158 2.00017H10.5443C11.374 1.99178 12.1783 2.29361 12.8073 2.8494C13.4364 3.40519 13.8472 4.17702 13.9634 5.02101C14.1798 6.70718 14.5813 8.36278 15.16 9.95623C15.39 10.5848 15.4398 11.268 15.3035 11.9248C15.1671 12.5816 14.8504 13.1845 14.3907 13.662L12.2197 15.8925C14.6532 20.2895 18.1969 23.9302 22.4767 26.4304L24.6478 24.1999C25.1126 23.7276 25.6994 23.4022 26.3387 23.2621C26.978 23.1221 27.643 23.1732 28.2549 23.4095C29.8059 24.0041 31.4173 24.4165 33.0586 24.6389C33.889 24.7593 34.6474 25.189 35.1895 25.8464C35.7317 26.5037 36.0197 27.3429 35.9989 28.2042Z" stroke="#070C16" stroke-width="3" stroke-linecap="round" stroke-linejoin="round"/>
</svg>
